<?xml version="1.0" encoding="utf-8"?>
<!-- Generator: Adobe Illustrator 24.3.0, SVG Export Plug-In . SVG Version: 6.00 Build 0)  -->
<svg version="1.1" xmlns="http://www.w3.org/2000/svg" xmlns:xlink="http://www.w3.org/1999/xlink" x="0px" y="0px"
	 viewBox="0 0 500 500" style="enable-background:new 0 0 500 500;" xml:space="preserve">
<style type="text/css">
	.st0{display:none;}
	.st1{display:inline;}
	.st2{fill:#FFFFFF;}
</style>
<g id="background" class="st0">
	<rect class="st1" width="500" height="500"/>
</g>
<g id="logo">
	<path class="st2" d="M420.3,296.2c-15.7,25.1-33.8,52-54,79.4l-94.6-17.1c-90.2-125.4,56.9-331.2,56.9-331.2L420.3,296.2z"/>
	<path class="st2" d="M87.8,78.8l106.8,37.8l27.2,104c-30.7,41.5-58.8,84.8-84.4,129.7C137.4,350.3,53.8,168.6,87.8,78.8z"/>
	<path class="st2" d="M315.5,416.2l-93.7,33l20.5,23.5c0,0,60.3,0,66.7-28.3L315.5,416.2z"/>
	<path class="st2" d="M143.3,444.5l-18.8-45.7c0,0,1.4,39.1,9.4,45.6S143.3,444.5,143.3,444.5z"/>
</g>
</svg>
