<svg id="Layer_1" data-name="Layer 1" xmlns="http://www.w3.org/2000/svg" viewBox="0 0 500 500"><defs><style>.cls-1{fill:#fff;}</style></defs><path class="cls-1" d="M250,25.86C126.2,25.86,25.86,126.23,25.86,250S126.2,474.14,250,474.14,474.14,373.8,474.14,250,373.8,25.86,250,25.86ZM353.91,178.31c-3.4,35.44-18,121.46-25.43,161.14-3.11,16.81-9.31,22.44-15.3,23-13,1.23-22.91-8.58-35.51-16.85-19.72-12.95-30.86-21-50-33.62-22.14-14.57-7.78-22.59,4.83-35.68,3.29-3.44,60.66-55.58,61.74-60.31.14-.6.28-2.8-1.05-4s-3.22-.74-4.62-.42q-3,.63-94.56,62.47c-8.93,6.13-17,9.15-24.3,9-8-.17-23.4-4.52-34.82-8.23-14-4.55-25.21-7-24.23-14.74q.73-6,16.67-12.37,98-42.71,130.7-56.31c62.27-25.88,75.19-30.4,83.63-30.54,1.86,0,6,.42,8.69,2.63a9.51,9.51,0,0,1,3.18,6.06A41.48,41.48,0,0,1,353.91,178.31Z"/></svg>